# xmcd
#
# Track frame offsets:
#	150
#	21087
#	35910
#	53592
#	70927
#	94877
#	108837
#	123450
#	144460
#	165377
#	183055
#	199675
#
# Disc length: 2846 seconds
#
# Revision: 0
# Processed by: cddbd v1.5.2PL0 Copyright (c) Steve Scherf et al.
# Submitted via: EZCDAudioConverter 7.1.5.1
#
DISCID=9d0b1c0c
DTITLE=张卫健 - 我(不：)是张卫健 你爱我像谁
DYEAR=2000
DGENRE=
TTITLE0=你爱我像谁
TTITLE1=我要轻闲
TTITLE2=天生好手
TTITLE3=男人的烦恼
TTITLE4=美丽的姑娘
TTITLE5=少年梦
TTITLE6=一辈子一场梦
TTITLE7=罗密欧与流浪狗
TTITLE8=这是我的爱
TTITLE9=她不爱我
TTITLE10=大丈夫
TTITLE11=醉凡尘
EXTD=
EXTT0=
EXTT1=
EXTT2=
EXTT3=
EXTT4=
EXTT5=
EXTT6=
EXTT7=
EXTT8=
EXTT9=
EXTT10=
EXTT11=
PLAYORDER=
